<?xml version="1.0" encoding="UTF-8"?>
<svg width="57px" height="18px" viewBox="0 0 57 18" version="1.1" xmlns="http://www.w3.org/2000/svg" xmlns:xlink="http://www.w3.org/1999/xlink">
    <!-- Generator: Sketch 59.1 (86144) - https://sketch.com -->
    <title>svg/logo/primary</title>
    <desc>Created with Sketch.</desc>
    <g id="Symbols" stroke="none" stroke-width="1" fill="none" fill-rule="evenodd">
        <g id="Header/logo" transform="translate(-159.000000, -16.000000)">
            <g id="logo/primary" transform="translate(159.000000, 16.000000)">
                <path d="M2.09453038,9.67942755 L0,9.67942755 L0,8.08872987 L2.09453038,8.08872987 L2.09453038,5.92701252 C2.09453038,4.63541394 2.34436566,3.67352731 2.84404371,3.04132379 C3.34372175,2.40912027 4.20274442,2.09302326 5.42113746,2.09302326 C5.62648461,2.09302326 5.84209587,2.09982104 6.06797773,2.11341682 C6.29385959,2.12701259 6.53685006,2.1677993 6.79695644,2.23577818 L6.59161032,3.86726297 C6.4136428,3.7992841 6.24252275,3.7516996 6.07824503,3.72450805 C5.91396732,3.6973165 5.73600247,3.68372093 5.54434513,3.68372093 C5.20209989,3.68372093 4.92830781,3.73470432 4.72296067,3.83667263 C4.51761353,3.93864094 4.35676068,4.08479332 4.2403973,4.27513417 C4.12403391,4.46547501 4.04874109,4.69320082 4.01451657,4.95831843 C3.98029204,5.22343603 3.96318004,5.52593748 3.96318004,5.86583184 L3.96318004,8.08872987 L6.16038348,8.08872987 L6.16038348,9.67942755 L3.94264543,9.67942755 L3.94264543,17.7552773 L2.09453038,17.7552773 L2.09453038,9.67942755 Z M8.76827915,9.27155635 C9.28849192,8.79570424 9.8908345,8.43882051 10.575325,8.20089445 C11.2598155,7.9629684 11.9442957,7.84400716 12.6287861,7.84400716 C13.3406562,7.84400716 13.953266,7.93237836 14.4666339,8.10912343 C14.9800017,8.2858685 15.4009571,8.52379099 15.7295125,8.82289803 C16.0580679,9.12200507 16.3010584,9.46529323 16.4584912,9.85277281 C16.615924,10.2402524 16.6946392,10.6447206 16.6946392,11.0661896 L16.6946392,16.0014311 C16.6946392,16.3413255 16.701484,16.6540236 16.7151738,16.9395349 C16.7288637,17.2250462 16.7493981,17.4969576 16.7767777,17.7552773 L15.1340087,17.7552773 C15.0929393,17.2658294 15.0724049,16.7763889 15.0724049,16.286941 L15.0313357,16.286941 C14.6206414,16.9123466 14.1346605,17.3542026 13.5733783,17.6125224 C13.0120961,17.8708421 12.3618399,18 11.6225902,18 C11.1708265,18 10.7396039,17.9388199 10.3289096,17.816458 C9.91821535,17.694096 9.55886324,17.5105558 9.25084253,17.2658318 C8.94282181,17.0211079 8.69983134,16.7186065 8.52186381,16.3583184 C8.34389629,15.9980304 8.25491386,15.5799666 8.25491386,15.1041145 C8.25491386,14.4787089 8.39523231,13.9552794 8.6758734,13.5338104 C8.9565145,13.1123414 9.33982341,12.7690532 9.82581165,12.5039356 C10.3117999,12.238818 10.8799185,12.04848 11.5301844,11.9329159 C12.1804504,11.8173518 12.8751978,11.7595707 13.6144475,11.7595707 L14.9697319,11.7595707 L14.9697319,11.3516995 C14.9697319,11.1069755 14.9218182,10.8622552 14.8259896,10.6175313 C14.7301609,10.3728074 14.5864201,10.1518793 14.3947627,9.95474061 C14.2031054,9.75760188 13.9635373,9.60125281 13.6760513,9.48568873 C13.3885653,9.37012465 13.0463252,9.31234347 12.6493207,9.31234347 C12.2933857,9.31234347 11.9819472,9.3463324 11.7149959,9.41431127 C11.4480446,9.48229014 11.2050542,9.56726246 10.9860172,9.66923077 C10.7669803,9.77119908 10.568481,9.89016032 10.3905135,10.0261181 C10.2125459,10.1620758 10.0414259,10.2912337 9.87714818,10.4135957 L8.76827915,9.27155635 Z M13.9840705,13.1055456 C13.5459966,13.1055456 13.0976621,13.1293379 12.6390534,13.1769231 C12.1804448,13.2245083 11.7629119,13.3162784 11.3864421,13.4522361 C11.0099724,13.5881939 10.7019563,13.7785319 10.4623846,14.0232558 C10.2228129,14.2679798 10.1030289,14.5806779 10.1030289,14.9613596 C10.1030289,15.5187863 10.291261,15.9198557 10.6677307,16.1645796 C11.0442005,16.4093035 11.5541382,16.5316637 12.1975593,16.5316637 C12.7040822,16.5316637 13.1353048,16.4466914 13.4912398,16.2767442 C13.8471749,16.106797 14.1346566,15.885869 14.3536935,15.6139535 C14.5727305,15.342038 14.7301609,15.0395365 14.8259896,14.7064401 C14.9218182,14.3733436 14.9697319,14.043651 14.9697319,13.7173524 L14.9697319,13.1055456 L13.9840705,13.1055456 Z M26.859272,10.6583184 C26.5170267,10.3048283 26.1576746,10.0363158 25.7812049,9.85277281 C25.4047351,9.66922985 24.9564006,9.57745975 24.4361878,9.57745975 C23.9296649,9.57745975 23.4881751,9.66922985 23.1117054,9.85277281 C22.7352356,10.0363158 22.4203747,10.2878338 22.1671132,10.6073345 C21.9138517,10.9268352 21.7221973,11.2939156 21.5921441,11.7085868 C21.4620909,12.1232579 21.3970653,12.5549173 21.3970653,13.0035778 C21.3970653,13.4522384 21.4723581,13.8771 21.622946,14.2781753 C21.7735339,14.6792507 21.9857228,15.0293366 22.259519,15.3284436 C22.5333152,15.6275507 22.8618657,15.8620743 23.2451803,16.0320215 C23.628495,16.2019686 24.0597175,16.286941 24.5388609,16.286941 C25.0590736,16.286941 25.5039858,16.1951709 25.8736106,16.0116279 C26.2432355,15.8280849 26.5854756,15.5595724 26.9003412,15.2060823 L28.2145563,16.5112701 C27.735413,17.0415053 27.1775616,17.4221813 26.5409855,17.6533095 C25.9044094,17.8844376 25.2301963,18 24.5183263,18 C23.7653867,18 23.0774841,17.8776399 22.4545978,17.6329159 C21.8317115,17.388192 21.2943945,17.0449038 20.8426308,16.6030411 C20.3908671,16.1611785 20.0417822,15.6309512 19.7953656,15.0123435 C19.548949,14.3937357 19.4257426,13.7105583 19.4257426,12.9627907 C19.4257426,12.2150231 19.548949,11.5284468 19.7953656,10.9030411 C20.0417822,10.2776355 20.3874447,9.74061047 20.8323635,9.29194991 C21.2772823,8.84328935 21.8111768,8.4932034 22.4340632,8.24168157 C23.0569495,7.99015974 23.7516969,7.86440072 24.5183263,7.86440072 C25.2301963,7.86440072 25.9112542,7.99015974 26.5615201,8.24168157 C27.2117861,8.4932034 27.7764822,8.87727828 28.2556256,9.39391771 L26.859272,10.6583184 Z M30.452829,8.08872987 L32.300944,8.08872987 L32.300944,17.7552773 L30.452829,17.7552773 L30.452829,8.08872987 Z M30.0216022,4.62182469 C30.0216022,4.25473877 30.1550758,3.93864175 30.4220271,3.67352415 C30.6889784,3.40840655 31.0072617,3.27584973 31.3768865,3.27584973 C31.7465114,3.27584973 32.0647947,3.40840655 32.331746,3.67352415 C32.5986973,3.93864175 32.7321709,4.25473877 32.7321709,4.62182469 C32.7321709,4.9889106 32.5986973,5.30500762 32.331746,5.57012522 C32.0647947,5.83524283 31.7465114,5.96779964 31.3768865,5.96779964 C31.0072617,5.96779964 30.6889784,5.83524283 30.4220271,5.57012522 C30.1550758,5.30500762 30.0216022,4.9889106 30.0216022,4.62182469 Z M37.2497854,12.9220036 C37.2497854,13.4114515 37.3250783,13.8635042 37.4756662,14.2781753 C37.6262541,14.6928464 37.8384429,15.0463313 38.1122391,15.3386404 C38.3860353,15.6309496 38.7214306,15.8620743 39.1184351,16.0320215 C39.5154396,16.2019686 39.9603517,16.286941 40.4531849,16.286941 C40.946018,16.286941 41.3909301,16.2019686 41.7879346,16.0320215 C42.1849391,15.8620743 42.5203344,15.6309496 42.7941306,15.3386404 C43.0679268,15.0463313 43.2801156,14.6928464 43.4307035,14.2781753 C43.5812914,13.8635042 43.6565843,13.4114515 43.6565843,12.9220036 C43.6565843,12.4325557 43.5812914,11.980503 43.4307035,11.5658318 C43.2801156,11.1511607 43.0679268,10.7976759 42.7941306,10.5053667 C42.5203344,10.2130576 42.1849391,9.98193287 41.7879346,9.81198569 C41.3909301,9.64203851 40.946018,9.55706619 40.4531849,9.55706619 C39.9603517,9.55706619 39.5154396,9.64203851 39.1184351,9.81198569 C38.7214306,9.98193287 38.3860353,10.2130576 38.1122391,10.5053667 C37.8384429,10.7976759 37.6262541,11.1511607 37.4756662,11.5658318 C37.3250783,11.980503 37.2497854,12.4325557 37.2497854,12.9220036 Z M35.2784627,12.9220036 C35.2784627,12.2150233 35.4119364,11.5556381 35.6788877,10.9438283 C35.9458389,10.3320184 36.3120359,9.79499337 36.7774894,9.33273703 C37.2429429,8.87048069 37.7905271,8.50679918 38.4202583,8.24168157 C39.0499895,7.97656397 39.7276249,7.84400716 40.4531849,7.84400716 C41.1787448,7.84400716 41.8563802,7.97656397 42.4861114,8.24168157 C43.1158426,8.50679918 43.6634268,8.87048069 44.1288803,9.33273703 C44.5943339,9.79499337 44.9605308,10.3320184 45.2274821,10.9438283 C45.4944333,11.5556381 45.627907,12.2150233 45.627907,12.9220036 C45.627907,13.6289839 45.4944333,14.2917679 45.2274821,14.9103757 C44.9605308,15.5289834 44.5943339,16.0660085 44.1288803,16.5214669 C43.6634268,16.9769254 43.1158426,17.337208 42.4861114,17.6023256 C41.8563802,17.8674432 41.1787448,18 40.4531849,18 C39.7276249,18 39.0499895,17.8674432 38.4202583,17.6023256 C37.7905271,17.337208 37.2429429,16.9769254 36.7774894,16.5214669 C36.3120359,16.0660085 35.9458389,15.5289834 35.6788877,14.9103757 C35.4119364,14.2917679 35.2784627,13.6289839 35.2784627,12.9220036 Z" id="fácio" fill="#2E3238" fill-rule="nonzero"></path>
                <rect id="Rectangle" fill="#4CD7B4" fill-rule="evenodd" x="49.8306977" y="0" width="6.69767442" height="6.69767442" rx="1.6744186"></rect>
            </g>
        </g>
    </g>
</svg>