<?xml version="1.0" encoding="UTF-8"?>
<svg width="24px" height="24px" viewBox="0 0 24 24" version="1.1" xmlns="http://www.w3.org/2000/svg" xmlns:xlink="http://www.w3.org/1999/xlink">
    <title>close</title>
    <g id="close" stroke="none" stroke-width="1" fill="none" fill-rule="evenodd">
        <path d="M12,4.5 C12.2454599,4.5 12.4496084,4.67687516 12.4919443,4.91012437 L12.5,5 L12.5,11.5 L19,11.5 C19.2761424,11.5 19.5,11.7238576 19.5,12 C19.5,12.2454599 19.3231248,12.4496084 19.0898756,12.4919443 L19,12.5 L12.5,12.5 L12.5,19 C12.5,19.2761424 12.2761424,19.5 12,19.5 C11.7545401,19.5 11.5503916,19.3231248 11.5080557,19.0898756 L11.5,19 L11.5,12.5 L5,12.5 C4.72385763,12.5 4.5,12.2761424 4.5,12 C4.5,11.7545401 4.67687516,11.5503916 4.91012437,11.5080557 L5,11.5 L11.5,11.5 L11.5,5 C11.5,4.72385763 11.7238576,4.5 12,4.5 Z" id="Line-7" fill="#303846" transform="translate(12.000000, 12.000000) rotate(45.000000) translate(-12.000000, -12.000000) "></path>
    </g>
</svg>