<?xml version="1.0" encoding="UTF-8"?>
<svg width="24px" height="24px" viewBox="0 0 24 24" version="1.1" xmlns="http://www.w3.org/2000/svg" xmlns:xlink="http://www.w3.org/1999/xlink">
    <title>forbidden</title>
    <g id="forbidden" stroke="none" stroke-width="1" fill="none" fill-rule="evenodd">
        <path d="M12,2.5 C17.2467051,2.5 21.5,6.75329488 21.5,12 C21.5,17.2467051 17.2467051,21.5 12,21.5 C6.75329488,21.5 2.5,17.2467051 2.5,12 C2.5,6.75329488 6.75329488,2.5 12,2.5 Z M18.3535534,6.35355339 L6.35355339,18.3535534 L6.42337566,18.4150933 C7.9159899,19.7137232 9.86617256,20.5 12,20.5 C16.6944204,20.5 20.5,16.6944204 20.5,12 C20.5,9.86617256 19.7137232,7.9159899 18.4150933,6.42337566 L18.3535534,6.35355339 Z M12,3.5 C7.30557963,3.5 3.5,7.30557963 3.5,12 C3.5,14.1338274 4.28627678,16.0840101 5.58490671,17.5766243 L5.64644661,17.6464466 L17.6464466,5.64644661 L17.5766243,5.58490671 C16.0840101,4.28627678 14.1338274,3.5 12,3.5 Z" id="Line" fill="#303846"></path>
    </g>
</svg>