<?xml version="1.0" encoding="UTF-8"?>
<svg width="24px" height="24px" viewBox="0 0 24 24" version="1.1" xmlns="http://www.w3.org/2000/svg" xmlns:xlink="http://www.w3.org/1999/xlink">
    <title>health</title>
    <g id="health" stroke="none" stroke-width="1" fill="none" fill-rule="evenodd">
        <path d="M9,2 L8.88337887,2.00672773 C8.38604019,2.06449284 8,2.48716416 8,3 L8,7.999 L2.99983333,8 C2.44761368,8.00009205 2,8.44778034 2,9 L2,15 L2.00672924,15.1166345 C2.06450717,15.6140281 2.4872704,16.0000855 3.00016667,16 L8,15.998 L8,21 C8,21.5522847 8.44771525,22 9,22 L15,22 L15.1166211,21.9932723 C15.6139598,21.9355072 16,21.5128358 16,21 L16,15.998 L20.9998333,16 C21.5521832,16.000092 22,15.5523498 22,15 L22,9 L21.9932738,8.88339221 C21.9355215,8.38610852 21.5129421,8.00008548 21.0001667,8 L16,7.999 L16,3 C16,2.44771525 15.5522847,2 15,2 L9,2 Z M15,3 L15,8.999 L21,9 L21,15 L15,14.999 L15,21 L9,21 L9,14.999 L3,15 L3,9 L9,8.999 L9,3 L15,3 Z" id="Rectangle-Copy-2" fill="#303846"></path>
    </g>
</svg>