<svg xmlns="http://www.w3.org/2000/svg" width="24" height="24" viewBox="0 0 24 24"><path fill-rule="evenodd" d="M18.938 4.5a.5.5 0 0 1 .341.865l-.312.291h3.283c.315 0 .479.357.305.594l-.05.057-4.264 3.937a.375.375 0 0 1-.184.093l-.07.007-2.825-.001v2.187h2.685l4.144-3.957a.375.375 0 0 1 .567.484l-.049.058-4.253 4.061a.375.375 0 0 1-.187.097l-.072.007h-2.835v2.346h2.68l4.156-3.778a.375.375 0 0 1 .555.498l-.05.056-4.264 3.877a.375.375 0 0 1-.183.092l-.07.006-2.824-.001v2.125h2.68l4.156-3.778a.375.375 0 0 1 .555.498l-.05.056-4.264 3.877a.375.375 0 0 1-.183.092l-.07.006-2.824-.001V20a.5.5 0 0 1-.5.5H6.25a.5.5 0 0 1-.5-.5v-.745H2a.375.375 0 0 1-.076-.742L2 18.505h3.75V16.38H2a.375.375 0 0 1-.076-.742L2 15.63h3.75v-2.347H2a.375.375 0 0 1-.076-.742L2 12.533h3.75v-2.19H2a.375.375 0 0 1-.305-.593l.05-.057L6.01 5.756a.375.375 0 0 1 .184-.093l.07-.007h2.828l1.092-1.021a.5.5 0 0 1 .342-.135h8.412zm-1.267 1h-6.949L6.75 9.217V19.5h7.412V9a.5.5 0 0 1 .159-.365L17.67 5.5zm-7.183 5.438a.5.5 0 0 1 .5.5v.13c.808.217 1.5.927 1.5 1.682a.5.5 0 1 1-1 0l-.01-.074c-.07-.305-.544-.676-.99-.676-.515 0-1 .395-1 .75 0 .35.494.75 1 .75.99 0 2 .844 2 1.75 0 .75-.699 1.46-1.5 1.68a.5.5 0 1 1-1 .007c-.806-.22-1.5-.921-1.5-1.687a.5.5 0 1 1 1 0l.008.076c.071.309.548.674.992.674.47 0 1-.442 1-.75 0-.31-.526-.75-1-.75l-.145-.005c-.963-.071-1.855-.835-1.855-1.745 0-.8.678-1.484 1.5-1.688v-.124a.5.5 0 0 1 .5-.5zM21.29 6.405h-3.126l-3.002 2.81v.377h2.677l3.451-3.187zm-13.002 0H6.41L2.96 9.594l2.79-.001V9a.5.5 0 0 1 .158-.365L8.29 6.406z"/></svg>