<?xml version="1.0" encoding="UTF-8"?>
<svg width="24px" height="24px" viewBox="0 0 24 24" version="1.1" xmlns="http://www.w3.org/2000/svg" xmlns:xlink="http://www.w3.org/1999/xlink">
    <title>contract</title>
    <g id="contract" stroke="none" stroke-width="1" fill="none" fill-rule="evenodd">
        <path d="M18,2 C18.5128358,2 18.9355072,2.38604019 18.9932723,2.88337887 L19,3 L19,21 C19,21.5128358 18.6139598,21.9355072 18.1166211,21.9932723 L18,22 L10.0036891,22 C9.78284277,22 9.56952241,21.926946 9.3960416,21.7942118 L9.29699237,21.7075166 L5.29330324,17.7084666 C5.13681392,17.5521586 5.03745733,17.3493506 5.00868539,17.1324918 L5,17.00095 L5,3 C5,2.48716416 5.38604019,2.06449284 5.88337887,2.00672773 L6,2 L18,2 Z M18,3 L6,3 L6,16 L10.4,16 C10.5639321,16 10.709438,16.0788922 10.800622,16.2007809 C10.8982944,16.2734955 10.968962,16.3835034 10.9919443,16.5101244 L11,16.6 L10.999,21 L18,21 L18,3 Z M10,17 L6,17.00095 L9.999,20.996 L10,17 Z M15.5,11 C15.7761424,11 16,11.2238576 16,11.5 C16,11.7454599 15.8231248,11.9496084 15.5898756,11.9919443 L15.5,12 L8.5,12 C8.22385763,12 8,11.7761424 8,11.5 C8,11.2545401 8.17687516,11.0503916 8.41012437,11.0080557 L8.5,11 L15.5,11 Z M15.5,8 C15.7761424,8 16,8.22385763 16,8.5 C16,8.74545989 15.8231248,8.94960837 15.5898756,8.99194433 L15.5,9 L8.5,9 C8.22385763,9 8,8.77614237 8,8.5 C8,8.25454011 8.17687516,8.05039163 8.41012437,8.00805567 L8.5,8 L15.5,8 Z M15.5,5 C15.7761424,5 16,5.22385763 16,5.5 C16,5.74545989 15.8231248,5.94960837 15.5898756,5.99194433 L15.5,6 L8.5,6 C8.22385763,6 8,5.77614237 8,5.5 C8,5.25454011 8.17687516,5.05039163 8.41012437,5.00805567 L8.5,5 L15.5,5 Z" id="Rectangle-2" fill="#303846"></path>
    </g>
</svg>