<svg xmlns="http://www.w3.org/2000/svg" width="73" height="72" viewBox="0 0 73 72">
    <g fill="none" fill-rule="evenodd">
        <g fill="#FFF">
            <g>
                <g>
                    <path d="M31.5 10.5c4.688 0 8.758 2.605 10.732 6.41 1.026.177 2.034.415 3.02.709l.46.143-.076-.026 4.442-3.867c.808-.704 2.056-.354 2.4.631l.04.132 2.049 8.108.311.271c3.22 2.955 5.397 6.668 6.236 10.718l.085.435.082.519.375.132c1.47.582 2.561 1.917 2.797 3.53l.026.222.021.433v6c0 2.414-1.901 4.384-4.288 4.495L60 49.5h-2.805l-.1.134c-.316.389-.646.769-.99 1.139l-.35.366-.255.245V57c0 2.266-1.675 4.14-3.854 4.454l-.213.025L51 61.5h-3c-2.12 0-3.897-1.466-4.374-3.44l-.045-.207-.006-.04-.336.083c-1.277.274-2.582.456-3.907.544l-.664.036-1.168.024c-1.736 0-3.448-.161-5.114-.477l-.622-.126-.342-.084-.102.45c-.486 1.668-1.912 2.934-3.666 3.19l-.22.026L27 61.5h-3c-2.414 0-4.384-1.901-4.495-4.288L19.5 57v-5.61l-.16-.155c-3.406-3.444-5.46-7.77-5.792-12.397-1.45-.292-3.148-.968-4.445-1.928-2.641-1.955-3.657-4.917-2.36-8.568.277-.78 1.135-1.188 1.916-.911.78.277 1.188 1.135.911 1.916-.84 2.366-.294 3.958 1.318 5.152.77.569 1.791 1.011 2.692 1.264.414-4.538 2.474-8.489 6.055-11.905-.09-.572-.135-1.155-.135-1.745 0-6.427 5.385-11.613 12-11.613zm18.705 7.233l-3.241 2.83c-.408.355-.975.463-1.485.283l-.54-.183-.546-.17-1.046-.285.016.143c.09.574.137 1.163.137 1.762 0 .694-.063 1.381-.187 2.054-.06.455-.133.92-.222 1.393.686.042 1.384.106 2.091.192.823.101 1.408.85 1.307 1.672-.1.822-.849 1.407-1.671 1.306-1.212-.148-2.39-.224-3.535-.233l-.058.003c-1.212 0-2.402.064-3.575.201-3.15.388-6.004 1.308-8.555 2.63-1.187.616-2.212 1.273-3.07 1.925l-.515.408-.345.298c-.044.04-.08.074-.108.103-.588.583-1.538.58-2.122-.008-.583-.588-.58-1.538.008-2.122.253-.25.57-.533.952-.838l.115.09c-.954-.739-1.777-1.604-2.45-2.564-.23-.302-.446-.608-.647-.914l-.214-.336-.113-.19-.342.386c-2.22 2.603-3.457 5.483-3.7 8.729l-.025.407-.019.795c0 4.557 1.986 8.856 5.525 12.162.266.249.43.584.468.942l.008.155L22.5 57c0 .78.595 1.42 1.356 1.493L24 58.5h3c.78 0 1.42-.595 1.493-1.357L28.5 57l.001-1.11c.001-1.008.976-1.728 1.94-1.432 2.244.687 4.622 1.043 7.059 1.043 2.438 0 4.817-.356 7.062-1.044.924-.283 1.857.366 1.935 1.306l.005.13L46.5 57c0 .78.595 1.42 1.356 1.493L48 58.5h3c.78 0 1.42-.595 1.493-1.356l.007-.145.002-6.244c0-.415.173-.812.476-1.095.86-.804 1.633-1.673 2.305-2.59.336-.457.902-.687 1.462-.591l.126.016.129.005h3c.78 0 1.42-.595 1.493-1.356L61.5 45v-6c0-.78-.595-1.42-1.342-1.493l-.141-.007h-.066c-.784.01-1.442-.587-1.51-1.368-.383-4.351-2.59-8.389-6.184-11.433-.199-.168-.35-.385-.438-.628l-.046-.149-1.568-6.189zM51 33c1.657 0 3 1.343 3 3s-1.343 3-3 3-3-1.343-3-3 1.343-3 3-3zM31.5 13.5c-4.983 0-9 3.869-9 8.613 0 1.7.517 3.319 1.45 4.691.544.713 1.185 1.404 1.886 1.993l.285.232.363.266.126-.073c3.489-1.988 7.014-3.069 10.668-3.499l.24-.028.077-.007c.745-.085 1.505-.142 2.279-.17.003-.16.035-.323.095-.482.157-.419.281-.849.37-1.287.126-1.046.15-1.999.079-2.808-.598-4.193-4.352-7.441-8.918-7.441z" transform="translate(-256 -136) translate(16.5 128) translate(240 8)"/>
                </g>
            </g>
        </g>
    </g>
</svg>
