<svg xmlns="http://www.w3.org/2000/svg" width="24" height="24" viewBox="0 0 24 24"><path fill-rule="evenodd" d="M17.315 4a.5.5 0 0 1 .492.41l.008.09v10a.5.5 0 0 1-.41.492l-.09.008h-2.31c-.037 1.37-.525 2.527-1.46 3.444l-1.226 1.21-.645.647v1.3a.5.5 0 0 1-.41.491l-.09.008a.5.5 0 0 1-.492-.41l-.008-.09v-1.502a.5.5 0 0 1 .141-.347l.734-.742c.353-.352.785-.779 1.296-1.28.738-.723 1.124-1.624 1.16-2.728h-1.892c.443 1.183.109 2.377-1.004 3.506l-.165.161a.5.5 0 0 1-.687-.727c1.395-1.319 1.395-2.533-.006-3.904a.5.5 0 0 1 .024-.736c.62-.533 1.358-1.269 2.213-2.206.428-.468.414-1.02.076-1.3-.388-.321-1.086-.202-1.886.571l-.965.94a269.56 269.56 0 0 0-3.659 3.665.5.5 0 0 1-.714-.7l1.094-1.11.634-.639-.001-1.809L4 13.813v7.782a.5.5 0 0 1-.41.492l-.09.008a.5.5 0 0 1-.492-.41L3 21.595V13.61a.5.5 0 0 1 .094-.292l.05-.06 3.923-3.965V4.5a.5.5 0 0 1 .992-.09l.008.09v7.025c.317-.313.628-.62.934-.92L9 4.5a.5.5 0 0 1 .992-.09L10 4.5v5.13l.138-.126c1.091-.97 2.272-1.135 3.064-.48.795.658.825 1.87.025 2.746l-.214.23h.512l.004-.026c.119-.875.557-1.433 1.329-1.621l.142-.031V4.5a.5.5 0 0 1 .41-.492L15.5 4a.5.5 0 0 1 .492.41L16 4.5v6.282a.5.5 0 0 1-.5.5c-.753 0-1.005.305-1.005 1.218a.5.5 0 0 1-.41.492l-.09.008-1.94.002c-.15.15-.295.293-.437.428l-.302.281.094.11c.05.06.096.12.141.18L16.814 14V4.5a.5.5 0 0 1 .41-.492l.09-.008zM12.5 4a2 2 0 1 1 0 4 2 2 0 0 1 0-4zm0 1a1 1 0 1 0 0 2 1 1 0 0 0 0-2zM22 2.5a.5.5 0 0 1 .492.41L22.5 3v3a.5.5 0 0 1-.41.492L22 6.5h-2.826a.5.5 0 0 1-.09-.992l.09-.008H21.5v-2h-18v2h2.357a.5.5 0 0 1 .492.41l.008.09a.5.5 0 0 1-.41.492l-.09.008H3a.5.5 0 0 1-.492-.41L2.5 6V3a.5.5 0 0 1 .41-.492L3 2.5h19z"/></svg>