<svg xmlns="http://www.w3.org/2000/svg" width="24" height="24"><path fill-rule="evenodd" d="M12.861 4.046L14.44 2.3a9.94 9.94 0 012.696 1.118l-.12 2.35c.448.36.856.768 1.217 1.215l2.35-.12A9.94 9.94 0 0121.7 9.562l-1.746 1.578a8.09 8.09 0 010 1.721l1.747 1.578a9.94 9.94 0 01-1.119 2.697l-2.35-.12c-.36.449-.768.857-1.216 1.218l.12 2.35a9.94 9.94 0 01-2.698 1.118l-1.578-1.747a8.09 8.09 0 01-1.721 0L9.56 21.7a9.94 9.94 0 01-2.697-1.118l.12-2.35a8.048 8.048 0 01-1.217-1.216l-2.35.12A9.94 9.94 0 012.3 14.438l1.746-1.578a8.09 8.09 0 010-1.722L2.3 9.56a9.94 9.94 0 011.118-2.697l2.35.12c.36-.448.768-.856 1.215-1.216l-.12-2.35A9.94 9.94 0 019.562 2.3l1.578 1.746a8.09 8.09 0 011.722 0zm1.902-.614L13.26 5.094l-.506-.054a7.09 7.09 0 00-1.51 0l-.506.054-1.503-1.662a8.937 8.937 0 00-1.342.557l.114 2.237-.397.32a7.048 7.048 0 00-1.065 1.065l-.32.397-2.237-.114c-.222.431-.408.88-.557 1.342l1.662 1.503-.054.506a7.09 7.09 0 000 1.51l.054.506-1.662 1.503c.149.462.335.91.556 1.341l2.238-.114.32.397c.316.392.673.75 1.065 1.066l.397.32-.114 2.237c.431.222.88.408 1.342.557l1.503-1.662.506.054a7.09 7.09 0 001.509 0l.506-.054 1.503 1.662a8.937 8.937 0 001.342-.556l-.114-2.238.397-.32c.392-.316.75-.674 1.066-1.066l.32-.397 2.238.114c.221-.431.407-.88.556-1.342l-1.662-1.503.054-.506a7.09 7.09 0 000-1.509l-.054-.506 1.662-1.503a8.937 8.937 0 00-.557-1.342l-2.237.114-.32-.397a7.048 7.048 0 00-1.066-1.065l-.397-.32.114-2.238c-.605-.31-.678-.39-1.342-.556L14.439 2.3l.324 1.132zM12 8a4 4 0 110 8 4 4 0 010-8zm0 1a3 3 0 100 6 3 3 0 000-6z"/></svg>