<svg xmlns="http://www.w3.org/2000/svg" width="24" height="24"><path fill-rule="evenodd" d="M10.5 3.5c1.563 0 2.92.869 3.578 2.137l-.265-.043c.462.067.915.168 1.353.304l.326.108-.28-.094 1.48-1.289a.5.5 0 0 1 .787.175l.027.08.683 2.702.104.09c1.037.953 1.75 2.14 2.049 3.438l.058.28.027.173.125.044c.47.186.823.602.921 1.11l.02.14.007.145v2a1.5 1.5 0 0 1-1.356 1.493L20 16.5h-.935l-.034.045-.216.255-.23.246-.085.082V19a1.5 1.5 0 0 1-1.215 1.473l-.14.02L17 20.5h-1a1.5 1.5 0 0 1-1.44-1.08l-.033-.136-.002-.013-.112.028c-.372.08-.752.136-1.137.169l-.387.024-.389.008a9.13 9.13 0 0 1-1.538-.13l-.374-.071-.114-.028-.034.15a1.502 1.502 0 0 1-1.155 1.052l-.14.02L9 20.5H8a1.5 1.5 0 0 1-1.493-1.356L6.5 19v-1.87l-.053-.052c-1.102-1.113-1.779-2.504-1.92-3.995l-.008-.136a3.916 3.916 0 0 1-1.485-.644c-.88-.651-1.219-1.639-.786-2.856a.5.5 0 0 1 .942.335c-.28.789-.098 1.32.44 1.718.256.19.597.337.897.421.138-1.514.825-2.83 2.018-3.969a3.72 3.72 0 0 1-.045-.581c0-2.142 1.795-3.871 4-3.871zm6.235 2.411-1.08.943a.5.5 0 0 1-.495.095l-.18-.061-.182-.057-.349-.095.005.044a3.781 3.781 0 0 1-.012 1.251 9.337 9.337 0 0 1-.078.489c.228.014.46.035.697.064a.5.5 0 0 1-.122.993 10.358 10.358 0 0 0-1.197-.077c-.38 0-.752.019-1.12.059a8.383 8.383 0 0 0-2.924.885 7.059 7.059 0 0 0-1.023.641l-.172.136-.115.1a1.257 1.257 0 0 0-.036.034.5.5 0 1 1-.704-.71c.084-.084.19-.178.318-.28l.037.03a3.939 3.939 0 0 1-.808-.842 6.156 6.156 0 0 1-.157-.218l-.138-.21-.038-.064-.114.129c-.711.834-1.12 1.754-1.222 2.785l-.02.26-.006.265c0 1.519.662 2.952 1.842 4.054a.5.5 0 0 1 .152.283l.006.083V19a.5.5 0 0 0 .41.492L8 19.5h1a.5.5 0 0 0 .492-.41L9.5 19v-.37a.5.5 0 0 1 .647-.478 8 8 0 0 0 2.353.348 8.04 8.04 0 0 0 2.354-.348.5.5 0 0 1 .64.397l.007.082L15.5 19a.5.5 0 0 0 .41.492l.09.008h1a.5.5 0 0 0 .492-.41L17.5 19v-2.082a.5.5 0 0 1 .16-.365c.286-.268.544-.557.768-.863a.5.5 0 0 1 .487-.197l.042.005.043.002h1a.5.5 0 0 0 .492-.41L20.5 15v-2a.5.5 0 0 0-.406-.492l-.088-.008h-.022a.5.5 0 0 1-.504-.456c-.127-1.45-.863-2.796-2.06-3.811a.5.5 0 0 1-.138-.185l-.024-.074-.523-2.063zM17 11a1 1 0 1 1 0 2 1 1 0 0 1 0-2zm-6.5-6.5c-1.661 0-3 1.29-3 2.87 0 .574.177 1.12.494 1.58.155.2.332.395.525.568l.188.158.121.089.042-.024a9.236 9.236 0 0 1 3.733-1.187l.132-.011c.187-.019.37-.03.556-.037a.485.485 0 0 1 .032-.16c.053-.14.094-.284.123-.431.041-.341.05-.652.028-.917l-.019-.124C13.21 5.528 11.983 4.5 10.5 4.5z"/></svg>