<?xml version="1.0" encoding="UTF-8"?>
<svg width="24px" height="24px" viewBox="0 0 24 24" version="1.1" xmlns="http://www.w3.org/2000/svg" xmlns:xlink="http://www.w3.org/1999/xlink">
    <title>search</title>
    <g id="search" stroke="none" stroke-width="1" fill="none" fill-rule="evenodd">
        <path d="M13.1,4 C16.6898509,4 19.6,6.91014913 19.6,10.5 C19.6,14.0898509 16.6898509,17 13.1,17 C11.4335259,17 9.9135265,16.3728671 8.76313211,15.3417316 L8.75355339,15.3535534 L3.95355339,20.1535534 C3.75829124,20.3488155 3.44170876,20.3488155 3.24644661,20.1535534 C3.07288026,19.979987 3.05359511,19.7105626 3.18859116,19.5156945 L3.24644661,19.4464466 L8.04644661,14.6464466 L8.07451372,14.6227363 C7.15310934,13.500886 6.6,12.0650358 6.6,10.5 C6.6,6.91014913 9.51014913,4 13.1,4 Z M13.1,5 C10.0624339,5 7.6,7.46243388 7.6,10.5 C7.6,13.5375661 10.0624339,16 13.1,16 C16.1375661,16 18.6,13.5375661 18.6,10.5 C18.6,7.46243388 16.1375661,5 13.1,5 Z" id="Oval" fill="#303846"></path>
    </g>
</svg>