<?xml version="1.0" encoding="UTF-8"?>
<svg width="24px" height="24px" viewBox="0 0 24 24" version="1.1" xmlns="http://www.w3.org/2000/svg" xmlns:xlink="http://www.w3.org/1999/xlink">
    <title>taxes</title>
    <g id="taxes" stroke="none" stroke-width="1" fill="none" fill-rule="evenodd">
        <path d="M18,2 C18.5128358,2 18.9355072,2.38604019 18.9932723,2.88337887 L19,3 L19,21 C19,21.5128358 18.6139598,21.9355072 18.1166211,21.9932723 L18,22 L10.0036891,22 C9.78284277,22 9.56952241,21.926946 9.3960416,21.7942118 L9.29699237,21.7075166 L5.29330324,17.7084666 C5.13681392,17.5521586 5.03745733,17.3493506 5.00868539,17.1324918 L5,17.00095 L5,3 C5,2.48716416 5.38604019,2.06449284 5.88337887,2.00672773 L6,2 L18,2 Z M18,3 L6,3 L6,16 L10.4,16 C10.5639321,16 10.709438,16.0788922 10.800622,16.2007809 C10.8982944,16.2734955 10.968962,16.3835034 10.9919443,16.5101244 L11,16.6 L10.999,21 L18,21 L18,3 Z M10,17 L6,17.00095 L9.999,20.996 L10,17 Z M14.5,9.5 C15.6045695,9.5 16.5,10.3954305 16.5,11.5 C16.5,12.6045695 15.6045695,13.5 14.5,13.5 C13.3954305,13.5 12.5,12.6045695 12.5,11.5 C12.5,10.3954305 13.3954305,9.5 14.5,9.5 Z M14.5,10.5 C13.9477153,10.5 13.5,10.9477153 13.5,11.5 C13.5,12.0522847 13.9477153,12.5 14.5,12.5 C15.0522847,12.5 15.5,12.0522847 15.5,11.5 C15.5,10.9477153 15.0522847,10.5 14.5,10.5 Z M15.3535534,5.64644661 C15.5271197,5.82001296 15.5464049,6.08943736 15.4114088,6.2843055 L15.3535534,6.35355339 L9.35355339,12.3535534 C9.15829124,12.5488155 8.84170876,12.5488155 8.64644661,12.3535534 C8.47288026,12.179987 8.45359511,11.9105626 8.58859116,11.7156945 L8.64644661,11.6464466 L14.6464466,5.64644661 C14.8417088,5.45118446 15.1582912,5.45118446 15.3535534,5.64644661 Z M9.5,4.5 C10.6045695,4.5 11.5,5.3954305 11.5,6.5 C11.5,7.6045695 10.6045695,8.5 9.5,8.5 C8.3954305,8.5 7.5,7.6045695 7.5,6.5 C7.5,5.3954305 8.3954305,4.5 9.5,4.5 Z M9.5,5.5 C8.94771525,5.5 8.5,5.94771525 8.5,6.5 C8.5,7.05228475 8.94771525,7.5 9.5,7.5 C10.0522847,7.5 10.5,7.05228475 10.5,6.5 C10.5,5.94771525 10.0522847,5.5 9.5,5.5 Z" id="Rectangle-2" fill="#303846"></path>
    </g>
</svg>