<?xml version="1.0" encoding="UTF-8"?>
<svg width="24px" height="24px" viewBox="0 0 24 24" version="1.1" xmlns="http://www.w3.org/2000/svg" xmlns:xlink="http://www.w3.org/1999/xlink">
    <title>waiting</title>
    <g id="waiting" stroke="none" stroke-width="1" fill="none" fill-rule="evenodd">
        <path d="M12,4 C16.418278,4 20,7.581722 20,12 C20,16.418278 16.418278,20 12,20 C7.581722,20 4,16.418278 4,12 C4,7.581722 7.581722,4 12,4 Z M12,5 C8.13400675,5 5,8.13400675 5,12 C5,15.8659932 8.13400675,19 12,19 C15.8659932,19 19,15.8659932 19,12 C19,8.13400675 15.8659932,5 12,5 Z M12,6.34375 C12.2761424,6.34375 12.5,6.56760763 12.5,6.84375 L12.5,6.84375 L12.5,12.0360577 C12.5,12.1700095 12.4462518,12.2983599 12.3508021,12.3923411 L12.3508021,12.3923411 L10.0070521,14.7000334 C9.81028223,14.8937761 9.49370925,14.891322 9.29996659,14.6945521 C9.10622393,14.4977822 9.10867798,14.1812093 9.30544787,13.9874666 L9.30544787,13.9874666 L11.5,11.8266768 L11.5,6.84375 C11.5,6.56760763 11.7238576,6.34375 12,6.34375 Z" id="Path-3" fill="#303846"></path>
    </g>
</svg>