<?xml version="1.0" encoding="UTF-8"?>
<svg width="24px" height="24px" viewBox="0 0 24 24" version="1.1" xmlns="http://www.w3.org/2000/svg" xmlns:xlink="http://www.w3.org/1999/xlink">
    <title>warning</title>
    <g id="warning" stroke="none" stroke-width="1" fill="none" fill-rule="evenodd">
        <path d="M12.8574929,3.48550424 L21.8574929,18.4855042 C22.2574076,19.1520288 21.7772945,20 21,20 L3,20 C2.22270552,20 1.74259237,19.1520288 2.14250707,18.4855042 L11.1425071,3.48550424 C11.5309105,2.83816525 12.4690895,2.83816525 12.8574929,3.48550424 Z M12,4 L3,19 L21,19 L12,4 Z M11.8647461,16.3457031 C12.1290703,16.3457031 12.3330071,16.4254549 12.4765625,16.5849609 C12.6201179,16.7444669 12.6918945,16.9746079 12.6918945,17.2753906 C12.6918945,17.5670588 12.6189786,17.7937817 12.4731445,17.9555664 C12.3273105,18.1173511 12.124513,18.1982422 11.8647461,18.1982422 C11.6277657,18.1982422 11.4318042,18.1264656 11.2768555,17.9829102 C11.1219068,17.8393548 11.0444336,17.6035173 11.0444336,17.2753906 C11.0444336,16.6555959 11.3178684,16.3457031 11.8647461,16.3457031 Z M11.875,8.00585938 C12.247387,8.00585938 12.5492663,8.3077387 12.5492663,8.68012571 L12.5484858,8.71255987 L12.5484858,8.71255987 L12.2511502,14.8866459 C12.2414844,15.0873538 12.0759405,15.2451172 11.875,15.2451172 C11.6740595,15.2451172 11.5085156,15.0873538 11.4988498,14.8866459 L11.2015142,8.71255987 C11.1836013,8.34060394 11.4706099,8.02455281 11.8425658,8.00663992 C11.8533694,8.00611963 11.8641839,8.00585938 11.875,8.00585938 Z" id="!" fill="#303846"></path>
    </g>
</svg>