<svg xmlns="http://www.w3.org/2000/svg" width="24" height="24"><path fill-rule="evenodd" d="m2 22 1.413-5.136a9.853 9.853 0 0 1-1.33-4.955C2.087 6.446 6.554 2 12.043 2a9.918 9.918 0 0 1 7.044 2.907A9.83 9.83 0 0 1 22 11.918c-.003 5.464-4.47 9.91-9.958 9.91a9.995 9.995 0 0 1-4.763-1.206L2 22zm5.524-3.173c1.403.83 2.743 1.326 4.515 1.327 4.561 0 8.277-3.695 8.28-8.237.001-4.552-3.697-8.242-8.274-8.244-4.565 0-8.278 3.695-8.28 8.237 0 1.854.545 3.242 1.462 4.695l-.836 3.04 3.133-.818zm9.534-4.553c-.062-.103-.228-.165-.477-.289-.249-.124-1.472-.723-1.7-.806-.228-.082-.394-.124-.56.124-.167.248-.644.806-.789.971-.145.165-.29.186-.539.062-.249-.124-1.05-.385-2.001-1.23-.74-.656-1.24-1.467-1.384-1.715-.145-.248-.015-.382.109-.505.112-.111.248-.29.373-.434.127-.144.168-.247.251-.413.083-.165.042-.31-.02-.434-.063-.123-.56-1.343-.768-1.838-.202-.483-.407-.418-.56-.425l-.477-.009a.914.914 0 0 0-.663.31c-.228.249-.871.847-.871 2.066 0 1.22.892 2.397 1.016 2.562.124.165 1.754 2.666 4.25 3.739.593.255 1.057.407 1.418.522.596.188 1.139.161 1.568.098.478-.07 1.472-.6 1.68-1.178.207-.579.207-1.075.144-1.178z"/></svg>