<svg xmlns="http://www.w3.org/2000/svg" width="24" height="24" viewBox="0 0 24 24">
    <g fill="none" fill-rule="evenodd">
        <g fill="#313845">
            <g>
                <g>
                    <path d="M10.5 3.5c1.563 0 2.92.869 3.578 2.137l-.265-.043c.462.067.915.168 1.353.304l.326.108-.28-.094 1.48-1.289c.26-.226.656-.126.787.175l.027.08.683 2.702.104.09c1.037.953 1.75 2.14 2.049 3.438l.058.28.027.173.125.044c.47.186.823.602.921 1.11l.02.14.007.145v2c0 .78-.595 1.42-1.356 1.493L20 16.5h-.935l-.034.045-.216.255-.23.246-.085.082V19c0 .731-.523 1.34-1.215 1.473l-.14.02L17 20.5h-1c-.682 0-1.258-.455-1.44-1.08l-.033-.136-.002-.013-.112.028c-.372.08-.752.136-1.137.169l-.387.024-.389.008c-.52 0-1.035-.044-1.538-.13l-.374-.071-.114-.028-.034.15c-.156.534-.601.945-1.155 1.052l-.14.02L9 20.5H8c-.78 0-1.42-.595-1.493-1.356L6.5 19v-1.87l-.053-.052c-1.102-1.113-1.779-2.504-1.92-3.995l-.008-.136c-.484-.098-1.052-.323-1.485-.644-.88-.651-1.219-1.639-.786-2.856.092-.26.378-.396.638-.303.26.092.396.378.304.638-.28.789-.098 1.32.44 1.718.256.19.597.337.897.421.138-1.514.825-2.83 2.018-3.969-.03-.19-.045-.384-.045-.581 0-2.142 1.795-3.871 4-3.871zm6.235 2.411l-1.08.943c-.136.119-.325.155-.495.095l-.18-.061-.182-.057-.349-.095.005.044c.03.193.046.39.046.59 0 .224-.02.445-.058.661-.021.159-.047.323-.078.489.228.014.46.035.697.064.274.034.469.283.435.557-.033.274-.283.47-.557.436-.408-.05-.805-.076-1.19-.078l-.007.001c-.38 0-.752.019-1.12.059-1.078.123-2.054.434-2.924.885-.395.205-.737.424-1.023.641l-.172.136-.115.1-.036.034c-.196.194-.512.193-.707-.003-.194-.196-.193-.512.003-.707.084-.084.19-.178.318-.28l.037.03c-.314-.242-.585-.527-.808-.842-.054-.072-.107-.145-.157-.218l-.138-.21-.038-.064-.114.129c-.711.834-1.12 1.754-1.222 2.785l-.02.26-.006.265c0 1.519.662 2.952 1.842 4.054.08.076.134.176.152.283l.006.083V19c0 .245.177.45.41.492L8 19.5h1c.245 0 .45-.177.492-.41L9.5 19v-.37c0-.336.326-.576.647-.478.748.23 1.54.348 2.353.348.813 0 1.606-.119 2.354-.348.295-.09.593.104.64.397l.007.082L15.5 19c0 .245.177.45.41.492l.09.008h1c.245 0 .45-.177.492-.41L17.5 19v-2.082c0-.138.058-.27.16-.365.286-.268.544-.557.768-.863.112-.152.3-.229.487-.197l.042.005.043.002h1c.245 0 .45-.177.492-.41L20.5 15v-2c0-.245-.177-.45-.406-.492l-.088-.008h-.022c-.262.003-.481-.196-.504-.456-.127-1.45-.863-2.796-2.06-3.811-.06-.05-.107-.114-.138-.185l-.024-.074-.523-2.063zM17 11c.552 0 1 .448 1 1s-.448 1-1 1-1-.448-1-1 .448-1 1-1zm-6.5-6.5c-1.661 0-3 1.29-3 2.87 0 .574.177 1.12.494 1.58.155.2.332.395.525.568l.188.158.121.089.042-.024c1.164-.664 2.34-1.024 3.56-1.167l.173-.02.132-.011c.187-.019.37-.03.556-.037.001-.052.012-.107.032-.16.053-.14.094-.284.123-.431.041-.341.05-.652.028-.917l-.019-.124C13.21 5.528 11.983 4.5 10.5 4.5z" transform="translate(-127 -136) translate(68 136) translate(59)"/>
                </g>
            </g>
        </g>
    </g>
</svg>
