<svg xmlns="http://www.w3.org/2000/svg" width="24" height="24" viewBox="0 0 24 24">
    <g fill="none" fill-rule="evenodd">
        <g fill="#068589">
            <g>
                <g>
                    <path d="M14.646 5.646c.196-.195.512-.195.708 0 .173.174.192.443.057.638l-.057.07L9.707 12l5.647 5.646c.173.174.192.443.057.638l-.057.07c-.174.173-.443.192-.638.057l-.07-.057-6-6c-.173-.174-.192-.443-.057-.638l.057-.07 6-6z" transform="translate(-319 -520) translate(16 496) translate(303 24) matrix(-1 0 0 1 24 0)"/>
                </g>
            </g>
        </g>
    </g>
</svg>
