<svg xmlns="http://www.w3.org/2000/svg" width="24" height="24" viewBox="0 0 24 24">
    <g fill="none" fill-rule="evenodd">
        <g fill="#303846">
            <g>
                <g>
                    <g>
                        <path d="M17.315 4c.245 0 .45.177.492.41l.008.09v10c0 .245-.177.45-.41.492l-.09.008h-2.31c-.037 1.37-.525 2.527-1.46 3.444l-1.226 1.21-.645.647v1.3c0 .245-.177.449-.41.491l-.09.008c-.245 0-.45-.177-.492-.41l-.008-.09v-1.502c0-.13.05-.254.141-.347l.734-.742c.353-.352.785-.779 1.296-1.28.738-.723 1.124-1.624 1.16-2.728h-1.892c.443 1.183.109 2.377-1.004 3.506l-.165.161c-.2.19-.517.18-.707-.02-.19-.2-.18-.517.02-.707 1.395-1.319 1.395-2.533-.006-3.904-.21-.205-.199-.545.024-.736.62-.533 1.358-1.269 2.213-2.206.428-.468.414-1.02.076-1.3-.388-.321-1.086-.202-1.886.571l-.965.94c-1.147 1.126-2.366 2.347-3.659 3.665-.193.197-.51.2-.707.007-.197-.194-.2-.51-.007-.708l1.094-1.11.634-.638-.001-1.809L4 13.813v7.782c0 .246-.177.45-.41.492l-.09.008c-.245 0-.45-.177-.492-.41L3 21.595V13.61c0-.106.033-.208.094-.292l.05-.06 3.923-3.965V4.5c0-.276.224-.5.5-.5.246 0 .45.177.492.41l.008.09v7.025c.317-.313.628-.62.934-.92L9 4.5c0-.276.224-.5.5-.5.245 0 .45.177.492.41L10 4.5v5.13l.138-.126c1.091-.97 2.272-1.135 3.064-.48.795.658.825 1.87.025 2.746l-.214.23h.512l.004-.026c.119-.875.557-1.433 1.329-1.621l.142-.031V4.5c0-.245.177-.45.41-.492L15.5 4c.245 0 .45.177.492.41L16 4.5v6.282c0 .276-.224.5-.5.5-.753 0-1.005.305-1.005 1.218 0 .245-.177.45-.41.492l-.09.008-1.94.002c-.15.15-.295.293-.437.428l-.302.281.094.11c.05.06.096.12.141.18L16.814 14V4.5c0-.245.178-.45.41-.492l.09-.008zM12.5 4c1.105 0 2 .895 2 2s-.895 2-2 2-2-.895-2-2 .895-2 2-2zm0 1c-.552 0-1 .448-1 1s.448 1 1 1 1-.448 1-1-.448-1-1-1zM22 2.5c.245 0 .45.177.492.41L22.5 3v3c0 .245-.177.45-.41.492L22 6.5h-2.826c-.276 0-.5-.224-.5-.5 0-.245.177-.45.41-.492l.09-.008H21.5v-2h-18v2h2.357c.246 0 .45.177.492.41l.008.09c0 .245-.177.45-.41.492l-.09.008H3c-.245 0-.45-.177-.492-.41L2.5 6V3c0-.245.177-.45.41-.492L3 2.5h19z" transform="translate(-32 -320) translate(0 288) translate(16 16) translate(16 16)"/>
                    </g>
                </g>
            </g>
        </g>
    </g>
</svg>
