<svg xmlns="http://www.w3.org/2000/svg" width="24" height="24" viewBox="0 0 24 24">
    <g fill="none" fill-rule="evenodd">
        <g fill="#303846">
            <g>
                <g>
                    <path d="M21.854 2.146c.173.174.192.443.057.638l-.057.07-4.336 4.335C19.088 8.302 20.599 9.905 22 12c-4.414 6.448-9.78 8.238-14.664 5.37l-3.482 3.484c-.196.195-.512.195-.708 0-.173-.174-.192-.443-.057-.638l.057-.07 3.332-3.331C4.908 15.703 3.4 14.098 2 12c4.375-6.46 9.756-8.249 14.66-5.367l4.486-4.487c.196-.195.512-.195.708 0zm-5.052 5.757L15.16 9.547c.526.677.84 1.528.84 2.453 0 2.21-1.79 4-4 4-.925 0-1.776-.314-2.453-.84l-1.48 1.481c4.164 2.298 8.63.836 12.526-4.39l.188-.258-.182-.252c-1.21-1.658-2.485-2.938-3.797-3.838zM3.404 11.745l-.189.259.184.255c1.21 1.662 2.484 2.942 3.794 3.842l1.647-1.648C8.314 13.776 8 12.925 8 12c0-2.21 1.79-4 4-4 .925 0 1.776.314 2.453.84l1.477-1.477C11.747 5.05 7.27 6.51 3.404 11.745zm11.041-1.483l-4.183 4.183c.49.35 1.09.555 1.738.555 1.657 0 3-1.343 3-3 0-.648-.205-1.248-.555-1.738zM12 9c-1.657 0-3 1.343-3 3 0 .648.205 1.248.555 1.738l4.183-4.183C13.248 9.205 12.648 9 12 9z" transform="translate(-331 -81) translate(16 44) translate(315 37)"/>
                </g>
            </g>
        </g>
    </g>
</svg>
