<svg xmlns="http://www.w3.org/2000/svg" width="24" height="24" viewBox="0 0 24 24">
    <g fill="none" fill-rule="evenodd">
        <g fill="#303846">
            <g>
                <g>
                    <path d="M2 12c6.05-8.934 14.025-8.934 20 0-6.11 8.926-14.046 8.926-20 0zm18.6-.26c-5.297-7.255-11.835-7.255-17.196.005l-.189.259.184.255c5.277 7.249 11.784 7.248 17.194-.009l.188-.257-.182-.252zM12 8c2.21 0 4 1.79 4 4s-1.79 4-4 4-4-1.79-4-4 1.79-4 4-4zm0 1c-1.657 0-3 1.343-3 3s1.343 3 3 3 3-1.343 3-3-1.343-3-3-3z" transform="translate(-331 -81) translate(16 44) translate(315 37)"/>
                </g>
            </g>
        </g>
    </g>
</svg>
