<svg xmlns="http://www.w3.org/2000/svg" width="24" height="24" viewBox="0 0 24 24">
    <g fill="none" fill-rule="evenodd">
        <g fill="#303846">
            <g>
                <g>
                    <g>
                        <path d="M4.006 2.5l.253.006c.382.013.856.048 1.39.115.944.118 1.87.312 2.728.6 2.276.765 3.772 2.076 4.07 4.057.021.04.036.085.045.132l.008.09.001 3.161c.694-.826 1.724-1.454 3.014-1.902.873-.304 1.821-.509 2.792-.633.64-.082 1.197-.118 1.62-.125L19.995 8c.279-.003.506.222.506.5 0 2.452-1.666 4.013-4.35 4.852-.91.285-1.88.466-2.848.567-.339.035-.653.058-.936.07l.134-.007v2.027c2.959.106 5.868 1.152 7.854 3.137.195.196.195.512 0 .708-.196.195-.512.195-.708 0-3.804-3.805-11.489-3.805-15.292 0-.196.195-.512.195-.707 0-.196-.196-.196-.512 0-.707 1.985-1.987 4.895-3.033 7.854-3.138V8.484c-.193-.01-.405-.026-.633-.048l-.512-.056c-.943-.118-1.868-.312-2.727-.6-2.447-.82-3.994-2.272-4.122-4.507L3.5 3.014c-.008-.284.222-.517.506-.514zm15.458 6.52l-.306.022c-.224.018-.467.043-.725.076-.906.116-1.788.306-2.59.585-1.886.656-3.051 1.688-3.295 3.186l-.013.089.205-.012.458-.041c.907-.095 1.813-.265 2.653-.527 2.067-.646 3.352-1.713 3.603-3.303l.01-.075zM4.535 3.52l.017.115c.258 1.512 1.462 2.549 3.395 3.197.79.265 1.651.446 2.533.556.334.041.642.07.914.088l.07.003-.015-.11c-.245-1.447-1.356-2.46-3.142-3.112l-.248-.087c-.79-.266-1.651-.447-2.533-.557-.335-.042-.644-.07-.917-.088l-.074-.005z" transform="translate(-32 -528) translate(0 288) translate(16 224) translate(16 16)"/>
                    </g>
                </g>
            </g>
        </g>
    </g>
</svg>
