<svg xmlns="http://www.w3.org/2000/svg" width="24" height="24" viewBox="0 0 24 24">
    <g fill="none" fill-rule="evenodd">
        <g fill="#303846">
            <g>
                <path d="M14.128 4.087c.227-.155.537-.097.693.13L17.764 8.5H18c1.105 0 2 .895 2 2v7c0 1.105-.895 2-2 2H6c-1.105 0-2-.895-2-2V7.434h.002l.003-.083C4.082 6.316 4.945 5.5 6 5.5h6.048zm-9.13 5.145L5 17.5c0 .513.386.936.883.993L6 18.5h12c.513 0 .936-.386.993-.883L19 17.5V16h-2.5c-.245 0-.45-.177-.492-.41L16 15.5v-3c0-.276.224-.5.5-.5H19v-1.5c0-.513-.386-.935-.883-.993L18 9.5H6c-.365 0-.707-.098-1.001-.268zM19 13h-2v2h2v-2zm-8.434-6.501L6 6.5c-.513 0-.936.386-.993.883L5 7.5c0 .202.06.39.163.548l.419.22c.286.152.604.231.928.232l1.141-.001.068-.054 2.238-1.523.609-.423zm3.712-1.306l-3.725 2.533-.909.632h6.809l-2.175-3.165z" transform="translate(-16 -16) translate(16 16)"/>
            </g>
        </g>
    </g>
</svg>
