<svg xmlns="http://www.w3.org/2000/svg" width="24" height="24" viewBox="0 0 24 24">
    <g fill="none" fill-rule="evenodd">
        <g fill="#1F252E">
            <g>
                <g>
                    <path d="M17 2H7c-.552 0-1 .448-1 1v18c0 .552.448 1 1 1h10c.552 0 1-.448 1-1V3c0-.552-.448-1-1-1zm0 1v18H7V3h10zm-3 10c.552 0 1 .448 1 1v5c0 .552-.448 1-1 1h-4c-.552 0-1-.448-1-1v-5c0-.552.448-1 1-1zm0 1h-4v5h4v-5zM12 4c1.105 0 2 .895 2 2 0 .701-.36 1.318-.907 1.675C14.491 8.133 15.5 9.45 15.5 11c0 .276-.224.5-.5.5s-.5-.224-.5-.5c0-1.38-1.12-2.5-2.5-2.5S9.5 9.62 9.5 11c0 .276-.224.5-.5.5s-.5-.224-.5-.5c0-1.551 1.01-2.867 2.407-3.326C10.36 7.318 10 6.701 10 6c0-1.105.895-2 2-2zm0 1c-.552 0-1 .448-1 1s.448 1 1 1 1-.448 1-1-.448-1-1-1z" transform="translate(-32 -104) translate(16 88) translate(16 16)"/>
                </g>
            </g>
        </g>
    </g>
</svg>
