<svg xmlns="http://www.w3.org/2000/svg" width="57" height="18" viewBox="0 0 57 18">
    <g fill="none" fill-rule="evenodd">
        <g>
            <g>
                <g transform="translate(-159 -60) translate(0 44) translate(159 16)">
                    <path fill="#303846" fill-rule="nonzero" d="M2.095 9.68H0V8.088h2.095V5.927c0-1.292.25-2.253.749-2.886.5-.632 1.359-.948 2.577-.948.205 0 .421.007.647.02.226.014.469.055.729.123l-.205 1.631c-.178-.068-.35-.115-.514-.142-.164-.028-.342-.041-.534-.041-.342 0-.616.05-.821.153-.205.102-.366.248-.483.438-.116.19-.191.418-.225.683-.035.265-.052.568-.052.908v2.223H6.16v1.59H3.943v8.076H2.095V9.68zm6.673-.408c.52-.476 1.123-.833 1.807-1.071.685-.238 1.37-.357 2.054-.357.712 0 1.324.088 1.838.265.513.177.934.415 1.263.714.328.299.571.642.728 1.03.158.387.237.792.237 1.213v4.935c0 .34.006.653.02.939.014.285.034.557.062.815h-1.643c-.041-.49-.062-.979-.062-1.468h-.04c-.411.625-.897 1.067-1.459 1.326-.56.258-1.211.387-1.95.387-.452 0-.883-.061-1.294-.184-.41-.122-.77-.305-1.078-.55-.308-.245-.551-.547-.73-.908-.177-.36-.266-.778-.266-1.254 0-.625.14-1.149.42-1.57.282-.422.665-.765 1.15-1.03.487-.265 1.055-.456 1.705-.571.65-.116 1.345-.173 2.084-.173h1.356v-.408c0-.245-.048-.49-.144-.734-.096-.245-.24-.466-.431-.663-.192-.197-.431-.354-.719-.47-.287-.115-.63-.173-1.027-.173-.356 0-.667.034-.934.102-.267.068-.51.153-.729.255-.219.102-.418.221-.595.357-.178.136-.35.265-.514.388L8.768 9.272zm5.216 3.834c-.438 0-.886.023-1.345.07-.459.049-.876.14-1.253.276-.376.136-.684.327-.924.571-.24.245-.359.558-.359.938 0 .558.188.959.565 1.204.376.244.886.367 1.53.367.506 0 .937-.085 1.293-.255.356-.17.644-.391.863-.663.219-.272.376-.574.472-.908.096-.333.144-.662.144-.989v-.611h-.986zm12.875-2.448c-.342-.353-.701-.622-1.078-.805-.376-.184-.825-.276-1.345-.276-.506 0-.948.092-1.324.276-.377.183-.692.435-.945.754-.253.32-.445.687-.575 1.102-.13.414-.195.846-.195 1.295 0 .448.075.873.226 1.274.15.401.363.751.637 1.05.273.3.602.534.985.704.383.17.815.255 1.294.255.52 0 .965-.092 1.335-.275.37-.184.711-.452 1.026-.806l1.315 1.305c-.48.53-1.037.911-1.674 1.142-.637.231-1.31.347-2.023.347-.753 0-1.44-.122-2.063-.367-.623-.245-1.16-.588-1.612-1.03-.452-.442-.801-.972-1.048-1.59-.246-.62-.37-1.302-.37-2.05 0-.748.124-1.435.37-2.06.247-.625.592-1.162 1.037-1.611.445-.449.98-.799 1.602-1.05.623-.252 1.318-.378 2.084-.378.712 0 1.393.126 2.044.378.65.251 1.214.635 1.694 1.152l-1.397 1.264zm3.594-2.57H32.3v9.667h-1.848V8.09zm-.431-3.466c0-.367.133-.683.4-.948.267-.266.585-.398.955-.398s.688.132.955.398c.267.265.4.58.4.948 0 .367-.133.683-.4.948-.267.265-.585.398-.955.398s-.688-.133-.955-.398-.4-.581-.4-.948zm7.228 8.3c0 .49.075.942.226 1.356.15.415.362.768.636 1.06.274.293.61.524 1.006.694.397.17.842.255 1.335.255s.938-.085 1.335-.255c.397-.17.732-.401 1.006-.693.274-.293.486-.646.637-1.06.15-.415.226-.868.226-1.357 0-.49-.076-.941-.226-1.356-.15-.415-.363-.768-.637-1.06-.274-.293-.61-.524-1.006-.694-.397-.17-.842-.255-1.335-.255s-.938.085-1.335.255c-.397.17-.732.401-1.006.693-.274.293-.486.646-.636 1.06-.15.416-.226.868-.226 1.357zm-1.972 0c0-.707.134-1.366.4-1.978.268-.612.634-1.149 1.1-1.611.465-.463 1.013-.826 1.642-1.091.63-.265 1.308-.398 2.033-.398.726 0 1.403.133 2.033.398.63.265 1.177.628 1.643 1.09.465.463.832 1 1.098 1.612.267.612.4 1.271.4 1.978 0 .707-.133 1.37-.4 1.988-.266.619-.633 1.156-1.098 1.611-.466.456-1.013.816-1.643 1.081-.63.265-1.307.398-2.033.398-.725 0-1.403-.133-2.033-.398-.63-.265-1.177-.625-1.643-1.08-.465-.456-.831-.993-1.098-1.612-.267-.618-.4-1.281-.4-1.988z"/>
                    <rect width="6.698" height="6.698" x="49.831" fill="#3FE1B6" rx="1.674"/>
                </g>
            </g>
        </g>
    </g>
</svg>
