<svg xmlns="http://www.w3.org/2000/svg" width="136" height="43" viewBox="0 0 136 43">
    <g fill="none" fill-rule="evenodd">
        <g>
            <g>
                <g transform="translate(-134 -319) translate(107 319) translate(27)">
                    <path fill="#FFF" fill-rule="nonzero" d="M5.004 23.123H0v-3.8h5.004V14.16c0-3.086.596-5.383 1.79-6.894C7.988 5.755 10.04 5 12.95 5c.491 0 1.006.016 1.546.049.54.032 1.12.13 1.741.292l-.49 3.897c-.426-.162-.834-.276-1.227-.34-.392-.066-.817-.098-1.275-.098-.818 0-1.472.122-1.962.365-.49.244-.875.593-1.153 1.048-.278.455-.458.999-.54 1.632-.082.633-.122 1.356-.122 2.168v5.31h5.248v3.8H9.42v19.292H5.004V23.123zm15.942-.974c1.243-1.137 2.682-1.99 4.317-2.558 1.635-.568 3.27-.853 4.906-.853 1.7 0 3.164.212 4.39.634 1.227.422 2.232.99 3.017 1.705.785.714 1.365 1.535 1.742 2.46.376.926.564 1.892.564 2.899v11.79c0 .812.016 1.559.049 2.24.032.683.081 1.332.147 1.95h-3.925c-.098-1.17-.147-2.34-.147-3.508h-.098c-.98 1.494-2.142 2.55-3.483 3.166-1.34.617-2.894.926-4.66.926-1.08 0-2.11-.146-3.09-.438-.981-.293-1.84-.731-2.576-1.316-.736-.584-1.316-1.307-1.741-2.168-.425-.86-.638-1.86-.638-2.996 0-1.494.335-2.744 1.006-3.751.67-1.007 1.586-1.827 2.747-2.46 1.16-.634 2.518-1.089 4.071-1.365 1.554-.276 3.213-.414 4.98-.414h3.237v-.974c0-.585-.114-1.17-.343-1.754-.23-.585-.573-1.112-1.03-1.583-.458-.471-1.03-.845-1.717-1.12-.687-.277-1.505-.415-2.453-.415-.85 0-1.594.081-2.232.244-.638.162-1.218.365-1.742.609-.523.243-.997.527-1.422.852-.425.325-.834.634-1.227.926l-2.649-2.728zm12.46 9.159c-1.046 0-2.117.057-3.213.17-1.095.114-2.093.333-2.992.658-.9.325-1.635.78-2.208 1.364-.572.585-.858 1.332-.858 2.241 0 1.332.45 2.29 1.349 2.874.9.585 2.118.877 3.655.877 1.21 0 2.24-.203 3.09-.609.85-.406 1.537-.933 2.06-1.583.524-.65.9-1.372 1.129-2.168.229-.796.343-1.583.343-2.363v-1.461h-2.355zm30.758-5.846c-.818-.845-1.676-1.486-2.576-1.925-.899-.438-1.97-.658-3.213-.658-1.21 0-2.264.22-3.164.658-.899.439-1.651 1.04-2.256 1.803-.605.763-1.063 1.64-1.374 2.63-.31.991-.466 2.022-.466 3.094s.18 2.087.54 3.045c.36.958.866 1.794 1.52 2.509.655.714 1.44 1.275 2.355 1.68.916.407 1.946.61 3.09.61 1.243 0 2.306-.22 3.19-.658.882-.438 1.7-1.08 2.452-1.924l3.14 3.118c-1.145 1.266-2.478 2.176-3.999 2.728-1.52.552-3.13.828-4.831.828-1.8 0-3.442-.292-4.93-.877-1.488-.585-2.772-1.405-3.851-2.46-1.08-1.056-1.913-2.322-2.502-3.8-.589-1.478-.883-3.11-.883-4.896 0-1.787.294-3.427.883-4.92.589-1.495 1.414-2.778 2.477-3.85 1.063-1.071 2.338-1.908 3.826-2.509 1.488-.6 3.148-.9 4.98-.9 1.7 0 3.327.3 4.88.9 1.554.601 2.903 1.519 4.048 2.753l-3.336 3.02zm8.584-6.139h4.415v23.092h-4.415V19.323zm-1.03-8.282c0-.877.32-1.632.957-2.265.638-.634 1.398-.95 2.28-.95.884 0 1.644.316 2.282.95.638.633.957 1.388.957 2.265 0 .877-.32 1.632-.957 2.265-.638.634-1.398.95-2.281.95-.883 0-1.643-.316-2.281-.95-.638-.633-.957-1.388-.957-2.265zm17.268 19.828c0 1.17.18 2.25.54 3.24.359.99.866 1.835 1.52 2.533.654.699 1.455 1.25 2.404 1.657.948.406 2.01.609 3.188.609 1.177 0 2.24-.203 3.189-.61.948-.405 1.75-.957 2.403-1.656.654-.698 1.161-1.542 1.521-2.533.36-.99.54-2.07.54-3.24 0-1.169-.18-2.249-.54-3.24-.36-.99-.867-1.835-1.52-2.533-.655-.698-1.456-1.25-2.404-1.656-.949-.406-2.012-.61-3.189-.61s-2.24.204-3.188.61c-.949.406-1.75.958-2.404 1.656-.654.698-1.161 1.543-1.52 2.533-.36.991-.54 2.071-.54 3.24zm-4.71 0c0-1.689.32-3.264.957-4.725.638-1.462 1.512-2.745 2.624-3.85 1.112-1.103 2.42-1.972 3.925-2.606 1.504-.633 3.123-.95 4.856-.95 1.733 0 3.352.317 4.857.95 1.504.634 2.812 1.503 3.924 2.607 1.112 1.104 1.987 2.387 2.624 3.849.638 1.461.957 3.036.957 4.725 0 1.69-.319 3.272-.957 4.75-.637 1.478-1.512 2.76-2.624 3.849-1.112 1.088-2.42 1.949-3.924 2.582-1.505.633-3.124.95-4.857.95s-3.352-.317-4.856-.95c-1.505-.633-2.813-1.494-3.925-2.582-1.112-1.088-1.986-2.371-2.624-3.849-.638-1.478-.957-3.06-.957-4.75z"/>
                    <rect width="16" height="16" x="119.04" fill="#3FE1B6" rx="4"/>
                </g>
            </g>
        </g>
    </g>
</svg>
