<svg xmlns="http://www.w3.org/2000/svg" width="24" height="24" viewBox="0 0 24 24">
    <g fill="none" fill-rule="evenodd">
        <g fill="#303846">
            <g>
                <g>
                    <path d="M15 16.146c-1.457-.752-3.213-1.392-5.267-1.92l1.327 3.318c.252.79-.184 1.633-.973 1.885-.098.031-.2.052-.301.063l-.155.008H8.71c-.588 0-1.117-.343-1.355-.854l-2.107-5.32-.393-.06c-.49-.072-.854-.493-.854-.99V12H3c-.552 0-1-.448-1-1v-1c0-.552.448-1 1-1h1v-.006c0-.487.35-.903.831-.986C9.104 7.276 12.494 6.321 15 5.145c4-1.876 4 13.068 0 11.001zm-8.602-2.631l1.839 4.65c.06.172.208.295.383.327l.089.008h.922c.052 0 .103-.008.152-.024.234-.074.375-.305.353-.516l-.016-.078-1.566-3.91.044-.019c-.702-.158-1.435-.304-2.2-.438zm13.246.65l.087.023 1.88.684c.26.095.393.382.299.641-.084.23-.32.362-.554.322l-.087-.023-1.88-.684c-.26-.095-.393-.382-.299-.641.084-.23.32-.362.554-.322zm-4.22-8.114c-2.474 1.16-5.74 2.103-9.808 2.835L5 8.994v3.283l.59.09c3.883.611 7.045 1.508 9.489 2.7l.38.19c.35.182.555.068.883-.641.414-.894.658-2.344.658-3.899 0-1.557-.245-3.022-.661-3.942-.337-.745-.571-.885-.914-.724zM4 10H3v1h1v-1zm17.5 0c.276 0 .5.224.5.5 0 .245-.177.45-.41.492L21.5 11h-2c-.276 0-.5-.224-.5-.5 0-.245.177-.45.41-.492L19.5 10h2zm.41-4.513c.083.23-.013.483-.218.603l-.081.038-1.88.684c-.26.094-.546-.04-.64-.299-.084-.23.012-.483.217-.603l.081-.038 1.88-.684c.26-.094.546.04.64.299z" transform="translate(-32 -104) translate(16 88) translate(16 16)"/>
                </g>
            </g>
        </g>
    </g>
</svg>
