<svg xmlns="http://www.w3.org/2000/svg" width="24" height="24" viewBox="0 0 24 24">
    <g fill="none" fill-rule="evenodd">
        <g fill="#303846">
            <g>
                <g>
                    <g>
                        <path d="M18.938 4.5c.453 0 .672.555.341.865l-.312.291h3.283c.315 0 .479.357.305.594l-.05.057-4.264 3.937c-.052.048-.116.08-.184.093l-.07.007-2.825-.001v2.187h2.685l4.144-3.957c.15-.143.387-.138.53.012.125.13.137.329.037.472l-.049.058-4.253 4.061c-.052.05-.117.084-.187.097l-.072.007h-2.835v2.346h2.68l4.156-3.778c.153-.14.39-.129.53.025.121.134.128.332.025.473l-.05.056-4.264 3.877c-.052.047-.115.079-.183.092l-.07.006-2.824-.001v2.125h2.68l4.156-3.778c.153-.14.39-.129.53.025.121.134.128.332.025.473l-.05.056-4.264 3.877c-.052.047-.115.079-.183.092l-.07.006-2.824-.001V20c0 .276-.223.5-.5.5H6.25c-.276 0-.5-.224-.5-.5v-.745H2c-.207 0-.375-.168-.375-.375 0-.181.129-.332.3-.367L2 18.505h3.75V16.38H2c-.207 0-.375-.168-.375-.375 0-.181.129-.332.3-.367L2 15.63h3.75v-2.347H2c-.207 0-.375-.167-.375-.375 0-.18.129-.332.3-.367L2 12.533h3.75v-2.19H2c-.315 0-.479-.356-.305-.593l.05-.057L6.01 5.756c.052-.048.116-.08.184-.093l.07-.007h2.828l1.092-1.021c.093-.087.215-.135.342-.135h8.412zm-1.267 1h-6.949L6.75 9.217V19.5h7.412V9c0-.138.058-.27.159-.365L17.67 5.5zm-7.183 5.438c.276 0 .5.223.5.5v.13c.808.217 1.5.927 1.5 1.682 0 .276-.224.5-.5.5-.277 0-.5-.224-.5-.5l-.01-.074c-.07-.305-.544-.676-.99-.676-.515 0-1 .395-1 .75 0 .35.494.75 1 .75.99 0 2 .844 2 1.75 0 .75-.699 1.46-1.5 1.68 0 .284-.224.508-.5.508-.277 0-.5-.224-.5-.5-.806-.22-1.5-.922-1.5-1.688 0-.276.223-.5.5-.5.276 0 .5.224.5.5l.008.076c.071.309.548.674.992.674.47 0 1-.442 1-.75 0-.31-.526-.75-1-.75l-.145-.005c-.963-.071-1.855-.835-1.855-1.745 0-.8.678-1.484 1.5-1.688v-.124c0-.277.223-.5.5-.5zM21.29 6.405h-3.126l-3.002 2.81v.377h2.677l3.451-3.187zm-13.002 0H6.41L2.96 9.594l2.79-.001L5.75 9c0-.138.057-.27.158-.365L8.29 6.406z" transform="translate(-32 -424) translate(0 288) translate(16 120) translate(16 16)"/>
                    </g>
                </g>
            </g>
        </g>
    </g>
</svg>
