<?xml version="1.0" encoding="UTF-8"?>
<svg width="24px" height="24px" viewBox="0 0 24 24" version="1.1" xmlns="http://www.w3.org/2000/svg" xmlns:xlink="http://www.w3.org/1999/xlink">
    <title>svg/bank</title>
    <g id="bank" stroke="none" stroke-width="1" fill="none" fill-rule="evenodd">
        <path d="M11.6309557,2.16036816 L3.65852131,5.16036816 C2.61715417,5.55223108 2.89805303,7.09629776 4.01070844,7.09629776 L19.9555772,7.09629776 C21.0682326,7.09629776 21.3491315,5.55223108 20.3077644,5.16036816 L12.33533,2.16036816 C12.1083091,2.07494096 11.8579766,2.07494096 11.6309557,2.16036816 Z M20.5,21 C20.7761424,21 21,21.2238576 21,21.5 C21,21.7454599 20.8231248,21.9496084 20.5898756,21.9919443 L20.5,22 L3.5,22 C3.22385763,22 3,21.7761424 3,21.5 C3,21.2545401 3.17687516,21.0503916 3.41012437,21.0080557 L3.5,21 L20.5,21 Z M18.5,19 C18.7761424,19 19,19.2238576 19,19.5 C19,19.7454599 18.8231248,19.9496084 18.5898756,19.9919443 L18.5,20 L5.5,20 C5.22385763,20 5,19.7761424 5,19.5 C5,19.2545401 5.17687516,19.0503916 5.41012437,19.0080557 L5.5,19 L18.5,19 Z M8,8 C8.55228475,8 9,8.44771525 9,9 L9,9 L9,17 C9,17.5522847 8.55228475,18 8,18 L8,18 L6,18 C5.44771525,18 5,17.5522847 5,17 L5,17 L5,9 C5,8.44771525 5.44771525,8 6,8 L6,8 Z M13,8 C13.5522847,8 14,8.44771525 14,9 L14,9 L14,17 C14,17.5522847 13.5522847,18 13,18 L13,18 L11,18 C10.4477153,18 10,17.5522847 10,17 L10,17 L10,9 C10,8.44771525 10.4477153,8 11,8 L11,8 Z M18,8 C18.5522847,8 19,8.44771525 19,9 L19,9 L19,17 C19,17.5522847 18.5522847,18 18,18 L18,18 L16,18 C15.4477153,18 15,17.5522847 15,17 L15,17 L15,9 C15,8.44771525 15.4477153,8 16,8 L16,8 Z M8,9 L6,9 L6,17 L8,17 L8,9 Z M13,9 L11,9 L11,17 L13,17 L13,9 Z M18,9 L16,9 L16,17 L18,17 L18,9 Z M11.9831428,3.09629776 L19.9555772,6.09629776 L4.01070844,6.09629776 L11.9831428,3.09629776 Z" id="Path-18" fill="#303846"></path>
    </g>
</svg>