<svg xmlns="http://www.w3.org/2000/svg" width="24" height="24"><path fill-rule="evenodd" d="M8.427 14.022c.385-.34.636-.787.753-1.341h3.795c-.174 1.583-.805 2.865-1.89 3.847C10 17.509 8.663 18 7.075 18c-1.157 0-2.199-.257-3.126-.771a5.542 5.542 0 0 1-2.17-2.146C1.26 14.168 1 13.14 1 12c0-1.14.26-2.168.78-3.083A5.539 5.539 0 0 1 3.95 6.77C4.875 6.257 5.917 6 7.075 6c1.561 0 2.88.474 3.955 1.42 1.076.948 1.71 2.19 1.905 3.725h-3.74a2.475 2.475 0 0 0-.815-1.223 2.007 2.007 0 0 0-1.29-.463c-.655 0-1.184.234-1.586.7-.403.468-.603 1.081-.603 1.841 0 .754.202 1.365.607 1.832.404.467.931.7 1.582.7.507 0 .952-.17 1.336-.51zm13.467-3.12c.737.716 1.106 1.64 1.106 2.774 0 1.296-.424 2.34-1.272 3.134-.849.793-1.967 1.19-3.354 1.19-1.372 0-2.487-.398-3.346-1.194-.86-.796-1.29-1.828-1.29-3.096 0-.693.119-1.39.355-2.091.235-.701.6-1.468 1.093-2.3l1.745-2.935h3.684l-2.063 3.462a9.54 9.54 0 0 1 .488-.016c1.166 0 2.117.358 2.854 1.072zm-2.488 3.838c.266-.273.398-.628.398-1.064 0-.436-.132-.793-.398-1.073-.265-.279-.61-.418-1.033-.418-.422 0-.767.139-1.032.418-.266.28-.399.637-.399 1.073 0 .436.133.79.399 1.064.265.274.61.41 1.032.41.423 0 .768-.136 1.034-.41z"/></svg>