<svg width="24" height="24" xmlns="http://www.w3.org/2000/svg">
    <path d="M14.5 3a.5.5 0 0 1 .492.41L15 3.5V6h6a1 1 0 0 1 .993.883L22 7v11a1 1 0 0 1-1 1H3a1 1 0 0 1-1-1V7a1 1 0 0 1 1-1h6V3.5a.5.5 0 0 1 .41-.492L9.5 3h5zm6.5 9.14-7 1.75v.61a.5.5 0 0 1-.41.492L13.5 15h-3a.5.5 0 0 1-.492-.41L10 14.5v-.609l-7-1.75V18h18v-5.86zM13 12h-2v2h2v-2zm8-5H3v4.109l7 1.75V11.5a.5.5 0 0 1 .41-.492L10.5 11h3a.5.5 0 0 1 .492.41l.008.09v1.359l7-1.75V7zm-7-3h-4v2h4V4z" fill="#303846" fill-rule="evenodd"/>
</svg>
