<svg xmlns="http://www.w3.org/2000/svg" width="24" height="24"><path fill-rule="evenodd" d="m4.006 2.5.253.006c.382.013.856.048 1.39.115.944.118 1.87.312 2.728.6 2.276.765 3.772 2.076 4.07 4.057.021.04.036.085.045.132l.008.09.001 3.161c.694-.826 1.724-1.454 3.014-1.902a13.907 13.907 0 0 1 2.792-.633 15.2 15.2 0 0 1 1.62-.125L19.995 8a.5.5 0 0 1 .506.5c0 2.452-1.666 4.013-4.35 4.852-.91.285-1.88.466-2.848.567-.339.035-.653.058-.936.07l.134-.007v2.027c2.959.106 5.868 1.152 7.854 3.137a.5.5 0 0 1-.708.708c-3.804-3.805-11.489-3.805-15.292 0a.5.5 0 1 1-.708-.707c1.986-1.987 4.896-3.033 7.855-3.138V8.484a14.39 14.39 0 0 1-.633-.048l-.512-.056a14.115 14.115 0 0 1-2.727-.6c-2.447-.82-3.994-2.272-4.122-4.507L3.5 3.014a.5.5 0 0 1 .506-.514zm15.458 6.52-.306.022c-.224.018-.467.043-.725.076-.906.116-1.788.306-2.59.585-1.886.656-3.051 1.688-3.295 3.186l-.013.089.205-.012.458-.041a13.742 13.742 0 0 0 2.653-.527c2.067-.646 3.352-1.713 3.603-3.303l.01-.075zM4.535 3.52l.017.115c.258 1.512 1.462 2.549 3.395 3.197.79.265 1.651.446 2.533.556.334.041.642.07.914.088l.07.003-.015-.11c-.245-1.447-1.356-2.46-3.142-3.112l-.248-.087a13.125 13.125 0 0 0-2.533-.557c-.335-.042-.644-.07-.917-.088l-.074-.005z"/></svg>