<svg width="24" height="24" xmlns="http://www.w3.org/2000/svg">
    <path d="M13.5 5a.5.5 0 0 1 .492.41L14 5.5v3a.5.5 0 0 1-.992.09L13 8.5V6H6v12h7v-2.429a.5.5 0 0 1 .41-.492l.09-.008a.5.5 0 0 1 .492.41l.008.09V18.5a.5.5 0 0 1-.41.492L13.5 19h-8a.5.5 0 0 1-.492-.41L5 18.5v-13a.5.5 0 0 1 .41-.492L5.5 5h8zm3.244 3.045.076.044.07.057 3.535 3.536a.5.5 0 0 1 .057.638l-.057.07-3.536 3.535a.5.5 0 0 1-.765-.638l.058-.07 2.716-2.717h-8.399a.5.5 0 0 1-.09-.992l.09-.008h8.329l-2.646-2.646a.5.5 0 0 1-.058-.638l.058-.07a.5.5 0 0 1 .562-.1z" fill="#303846" fill-rule="nonzero"/>
</svg>
